<?xml version="1.0" encoding="UTF-8"?>
<svg xmlns="http://www.w3.org/2000/svg" id="Layer_1" data-name="Layer 1" viewBox="0 0 24 24">
  <path d="m5,9h3v15h-3v-15Zm5,15h3V6h-3v18Zm-10,0h3v-12H0v12Zm24-9v-.5c0-1.58-1.059-2.903-2.5-3.337v-1.163h-3v1.163c-1.441.434-2.5,1.757-2.5,3.337,0,1.528.917,2.882,2.336,3.45l2.214.886c.273.109.45.37.45.665,0,.276-.225.5-.5.5h-1c-.275,0-.5-.224-.5-.5v-.5h-3v.5c0,1.58,1.059,2.903,2.5,3.337v1.163h3v-1.163c1.441-.434,2.5-1.757,2.5-3.337,0-1.528-.917-2.882-2.336-3.45l-2.214-.886c-.273-.109-.45-.37-.45-.665,0-.276.225-.5.5-.5h1c.275,0,.5.224.5.5v.5h3Zm-6-12h-3v8.348c.717-1.021,1.5-1.925,3-2.579V3Zm5-3h-3v8h3V0Z"/>
</svg>
